<svg width="65" height="65" viewBox="0 0 65 65" fill="none" xmlns="http://www.w3.org/2000/svg">
<path d="M45.5114 22.4135C47.1268 22.4135 48.4364 21.1039 48.4364 19.4885C48.4364 17.873 47.1268 16.5635 45.5114 16.5635C43.8959 16.5635 42.5863 17.873 42.5863 19.4885C42.5863 21.1039 43.8959 22.4135 45.5114 22.4135Z" fill="#FFF6E8"/>
<path d="M32.5 19.9832C30.0244 19.9832 27.6043 20.7173 25.5459 22.0926C23.4875 23.468 21.8832 25.4229 20.9358 27.7101C19.9884 29.9973 19.7405 32.514 20.2235 34.9421C20.7065 37.3701 21.8986 39.6004 23.6491 41.351C25.3997 43.1015 27.63 44.2936 30.058 44.7766C32.4861 45.2595 35.0028 45.0117 37.29 44.0643C39.5772 43.1169 41.5321 41.5126 42.9075 39.4542C44.2828 37.3958 45.0169 34.9757 45.0169 32.5001C45.0169 29.1804 43.6982 25.9967 41.3508 23.6493C39.0034 21.3019 35.8197 19.9832 32.5 19.9832ZM32.5 40.6251C30.893 40.6251 29.3221 40.1486 27.986 39.2558C26.6498 38.363 25.6084 37.0941 24.9935 35.6094C24.3785 34.1248 24.2176 32.4911 24.5311 30.915C24.8446 29.3389 25.6184 27.8912 26.7547 26.7549C27.891 25.6186 29.3388 24.8447 30.9149 24.5312C32.491 24.2177 34.1246 24.3786 35.6093 24.9936C37.0939 25.6086 38.3629 26.65 39.2557 27.9861C40.1485 29.3223 40.625 30.8931 40.625 32.5001C40.625 34.655 39.7689 36.7216 38.2452 38.2454C36.7215 39.7691 34.6549 40.6251 32.5 40.6251Z" fill="#FFF6E8"/>
<path d="M32.5 12.517C39.0083 12.517 39.7794 12.5418 42.3495 12.6592C43.8952 12.6776 45.4262 12.9615 46.8758 13.4985C47.9269 13.9041 48.8816 14.5252 49.6783 15.3219C50.475 16.1186 51.0961 17.0733 51.5017 18.1244C52.0387 19.574 52.3226 21.105 52.341 22.6507C52.4583 25.2208 52.4832 25.9919 52.4832 32.5002C52.4832 39.0085 52.4585 39.7796 52.341 42.3497C52.3226 43.8954 52.0387 45.4264 51.5017 46.876C51.0961 47.9271 50.475 48.8818 49.6783 49.6785C48.8816 50.4752 47.9269 51.0963 46.8758 51.5019C45.4262 52.0389 43.8952 52.3228 42.3495 52.3412C39.7796 52.4585 39.0089 52.4834 32.5 52.4834C25.9911 52.4834 25.2204 52.4587 22.6505 52.3412C21.1048 52.3228 19.5738 52.0389 18.1242 51.5019C17.0731 51.0963 16.1184 50.4752 15.3217 49.6785C14.525 48.8818 13.9039 47.9271 13.4983 46.876C12.9613 45.4264 12.6774 43.8954 12.659 42.3497C12.5417 39.7796 12.5168 39.0085 12.5168 32.5002C12.5168 25.9919 12.5415 25.2208 12.659 22.6507C12.6774 21.105 12.9613 19.574 13.4983 18.1244C13.9039 17.0732 14.525 16.1185 15.3217 15.3218C16.1184 14.5251 17.073 13.9039 18.1242 13.4983C19.5738 12.9613 21.1048 12.6774 22.6505 12.659C25.2206 12.5417 25.9917 12.5168 32.5 12.5168V12.517ZM32.5 8.125C25.8802 8.125 25.05 8.15303 22.4502 8.27166C20.4284 8.31225 18.4281 8.69535 16.5344 9.40469C14.9149 10.0309 13.4442 10.9887 12.2164 12.2164C10.9887 13.4442 10.0309 14.9149 9.40469 16.5344C8.69524 18.4284 8.31213 20.4291 8.27166 22.4512C8.15303 25.05 8.125 25.8802 8.125 32.5C8.125 39.1198 8.15303 39.95 8.27166 42.5498C8.31216 44.572 8.69526 46.5726 9.40469 48.4666C10.0309 50.0861 10.9887 51.5568 12.2164 52.7846C13.4442 54.0124 14.9149 54.9701 16.5344 55.5963C18.4284 56.3058 20.4291 56.6889 22.4512 56.7294C25.05 56.847 25.8802 56.875 32.5 56.875C39.1198 56.875 39.95 56.847 42.5498 56.7283C44.572 56.6878 46.5726 56.3047 48.4666 55.5953C50.0861 54.9691 51.5568 54.0113 52.7846 52.7836C54.0124 51.5558 54.9701 50.0851 55.5963 48.4656C56.3058 46.5716 56.6889 44.5709 56.7294 42.5488C56.847 39.95 56.875 39.1198 56.875 32.5C56.875 25.8802 56.847 25.05 56.7283 22.4502C56.6878 20.4284 56.3046 18.4281 55.5953 16.5344C54.9689 14.9151 54.0112 13.4446 52.7834 12.217C51.5557 10.9894 50.085 10.0319 48.4656 9.4057C46.5716 8.69628 44.5709 8.31317 42.5488 8.27267C39.95 8.15303 39.1198 8.125 32.5 8.125Z" fill="#FFF6E8"/>
</svg>
