<svg width="64" height="64" viewBox="0 0 64 64" fill="none" xmlns="http://www.w3.org/2000/svg">
<path d="M53.34 8H10.66C9.95614 8.00523 9.2826 8.28716 8.78488 8.78488C8.28716 9.2826 8.00523 9.95614 8 10.66V53.34C8.00523 54.0439 8.28716 54.7174 8.78488 55.2151C9.2826 55.7128 9.95614 55.9948 10.66 56H33.64V37.44H27.4V30.18H33.64V24.84C33.64 18.64 37.42 15.26 42.98 15.26C44.84 15.26 46.7 15.26 48.56 15.54V22H44.74C41.72 22 41.14 23.44 41.14 25.54V30.16H48.34L47.4 37.42H41.14V56H53.34C54.0439 55.9948 54.7174 55.7128 55.2151 55.2151C55.7128 54.7174 55.9948 54.0439 56 53.34V10.66C55.9948 9.95614 55.7128 9.2826 55.2151 8.78488C54.7174 8.28716 54.0439 8.00523 53.34 8Z" fill="#FFF6E8"/>
</svg>
