<svg width="65" height="64" viewBox="0 0 65 64" fill="none" xmlns="http://www.w3.org/2000/svg">
<path d="M24.2125 49.88C27.6436 49.9013 31.0448 49.2515 34.2188 47.9685C37.3929 46.6855 40.2766 44.7947 42.7028 42.4059C45.129 40.017 47.0493 37.1776 48.3524 34.0524C49.6554 30.9272 50.3153 27.5783 50.2937 24.2C50.2937 23.8 50.2937 23.42 50.2937 23.02C52.0723 21.737 53.6117 20.1604 54.8437 18.36C53.169 19.0812 51.3969 19.5595 49.5828 19.78C51.5062 18.6516 52.9494 16.8753 53.6453 14.78C51.8528 15.8389 49.8871 16.5833 47.8359 16.98C46.4545 15.5307 44.6266 14.5701 42.6348 14.2468C40.6431 13.9234 38.5987 14.2554 36.8179 15.1913C35.0371 16.1272 33.6192 17.6149 32.7836 19.4242C31.9479 21.2334 31.7412 23.2634 32.1953 25.2C28.5513 25.0239 24.9858 24.0941 21.731 22.471C18.4762 20.848 15.6051 18.5682 13.3047 15.78C12.1447 17.7624 11.7931 20.1047 12.3211 22.3327C12.8491 24.5607 14.2172 26.5079 16.1484 27.78C14.7237 27.7259 13.332 27.3422 12.0859 26.66V26.76C12.0733 28.8317 12.7821 30.845 14.0942 32.4646C15.4064 34.0841 17.2426 35.2119 19.2969 35.66C17.9718 36.0109 16.5837 36.0656 15.2344 35.82C15.8291 37.5868 16.9643 39.1291 18.4845 40.2356C20.0046 41.342 21.8351 41.9583 23.725 42C20.4937 44.5611 16.4777 45.9708 12.3297 46C11.6024 45.9793 10.8768 45.9192 10.1562 45.82C14.3547 48.4538 19.2343 49.8424 24.2125 49.82" fill="#FFF6E8"/>
</svg>
