<svg width="65" height="65" viewBox="0 0 65 65" fill="none" xmlns="http://www.w3.org/2000/svg">
<path d="M59.7391 18.8093C59.4154 17.6068 58.7816 16.5105 57.9011 15.63C57.0206 14.7495 55.9243 14.1157 54.7219 13.7921C50.2938 12.5936 32.5 12.5936 32.5 12.5936C32.5 12.5936 14.7063 12.5936 10.2781 13.7921C9.07572 14.1157 7.9794 14.7495 7.0989 15.63C6.2184 16.5105 5.58461 17.6068 5.26095 18.8093C4.43413 23.3253 4.03289 27.9089 4.06252 32.4999C4.03289 37.0909 4.43413 41.6745 5.26095 46.1905C5.58461 47.3929 6.2184 48.4892 7.0989 49.3697C7.9794 50.2502 9.07572 50.884 10.2781 51.2077C14.7063 52.4061 32.5 52.4061 32.5 52.4061C32.5 52.4061 50.2938 52.4061 54.7219 51.2077C55.9243 50.884 57.0206 50.2502 57.9011 49.3697C58.7816 48.4892 59.4154 47.3929 59.7391 46.1905C60.5659 41.6745 60.9671 37.0909 60.9375 32.4999C60.9671 27.9089 60.5659 23.3253 59.7391 18.8093ZM26.8125 41.0311V23.9686L41.5797 32.4999L26.8125 41.0311Z" fill="#FFF6E8"/>
</svg>
